<svg width="514" height="87" xmlns="http://www.w3.org/2000/svg">
 <!-- Created with UXWing SVG Editor - https://uxwing.com/svg-icon-editor/ -->

 <g>
  <title>background</title>
  <rect fill="none" id="canvas_background" height="89" width="516" y="-1" x="-1"/>
  <g display="none" overflow="visible" y="0" x="0" height="100%" width="100%" id="canvasGrid">
   <rect fill="url(#gridpattern)" stroke-width="0" y="1" x="1" height="512" width="512"/>
  </g>
 </g>
 <g>
  <title>Layer 1</title>
  <g stroke="null" id="svg_9">
   <g stroke="null" transform="matrix(0.7993617254687319,0,0,0.8275735908497874,-2253.924453276031,-3018.5391021359023) " id="svg_5">
    <path stroke="null" id="svg_6" d="m2868.138893,3736.915578c12.7,0 21.9,-8.7 21.9,-21c0,-10.4 -5.7,-14.6 -13.4,-18.3c-4.2,-2.1 -8.9,-3.2 -13.6,-6c-5.9,-3.4 -8.5,-6.8 -8.5,-13c0,-7.9 6.8,-10.4 9.6,-10.4c12.5,0 17,8.9 20.8,20.2l2.3,0l-0.6,-23.1l-3.4,0l-3,4.5c-3.4,-2.6 -9.5,-4.9 -14.2,-4.9c-11.2,0 -19.7,7.9 -19.7,18.7c0,8.9 4.2,14.6 11.2,17.8c5.3,2.5 9.1,3.8 14.2,6c6.2,2.6 9.3,7.4 9.3,13.4c0,7.6 -4.2,12.7 -12.7,12.7c-11.7,0 -17.8,-10.2 -21.7,-21l-2.3,0l0.6,23.6l3.4,0l3.2,-4.7c3.3,2.8 8.8,5.5 16.6,5.5l0,0zm44.2,-0.2c7.4,0 13.8,-5.3 17.4,-12.1l-2.1,-1.3c-3,5.9 -6.8,9.1 -13,9.1c-7.9,0 -12.3,-8.5 -12.3,-20.8c0,-15.3 5.3,-20.6 10.8,-20.6c3.2,0 4.5,0.8 5.1,3.6c0,1.9 -1.1,2.1 -1.1,6.2c0,4 3.6,5.1 5.5,5.1c3.2,0 5.1,-2.3 5.1,-5.7c0,-6.2 -4.9,-11.7 -14.4,-11.7c-12.9,0 -20.8,11.5 -20.8,24c-0.2,14 6.4,24.2 19.8,24.2l0,0zm28.6,-62.2c3.6,0 6.2,-3 6.2,-6.6c0,-3.2 -2.5,-6 -6.2,-6c-3.4,0 -6.1,3 -6.1,6.4s2.7,6.2 6.1,6.2zm-10.4,61l22.5,0l0,-2.1c-1.1,-0.2 -2.6,-0.6 -4.2,-1.1c-1.7,-0.8 -2.5,-2.5 -2.5,-4.7l0,-37.8l-0.6,-0.8l-16.6,1.1l0,1.9c1.7,0.2 4.5,1.1 5.5,1.9c1.5,1.1 2.3,3 2.5,5.1l0,29.1c0,2.1 -0.8,4 -2.5,4.5c-1.1,0.4 -2.5,0.6 -4.2,0.8l0,2.1l0.1,0zm41.4,1.2c7.8,0 14,-5.1 17.4,-12.3l-1.9,-1.1c-3.4,6.2 -6.1,9.1 -12.9,9.1c-9.5,0 -13.4,-9.3 -13.4,-22.3l0,-1.1l27.4,0l0,-0.9c0,-10.4 -4.7,-19.5 -17.6,-19.5c-12.5,0 -19.7,11.7 -19.7,23.8c0.1,13.1 6.7,24.3 20.7,24.3l0,0zm-10.8,-30.1c0.2,-9.4 4.2,-15.9 9.6,-15.9c6.4,0 7.9,8.3 7.9,15.5l-17.5,0.4l0,0z"/>
    <path stroke="null" id="svg_7" d="m2988.538893,3735.515578l22.3,0l0,-2.1c-1.3,-0.2 -3,-0.6 -4.2,-1.1c-1.5,-0.8 -2.3,-2.3 -2.3,-4.5l0,-27.6c0.9,-2.3 4.5,-6.6 10.8,-6.6c3.8,0 7.4,3.8 7.4,10.8l0,24c0,2.3 -0.8,4 -2.5,4.5c-1.1,0.4 -2.6,0.6 -4.2,0.8l0,2.1l22.3,0l0,-2.1c-1.7,-0.2 -3,-0.6 -4.2,-1.1c-1.7,-0.8 -2.3,-2.3 -2.3,-4.5l0,-23.5c0,-9.6 -4,-16.1 -12.5,-16.1c-7.8,0 -11.2,4.5 -14.7,8.3l-0.4,0l0,-6.8l-0.8,-0.8l-15.5,1.1l0,1.9c1.7,0.2 3.6,0.8 4.7,1.7c1.5,1.1 2.3,3.2 2.5,5.3l0,29.1c0,2.3 -0.8,4 -2.5,4.5c-1.1,0.4 -2.5,0.6 -4.2,0.8l0.3,1.9l0,0zm67.2,1.2c7.4,0 13.8,-5.3 17.4,-12.1l-2.1,-1.3c-3,5.9 -6.8,9.1 -13,9.1c-7.9,0 -12.3,-8.5 -12.3,-20.8c0,-15.3 5.3,-20.6 10.8,-20.6c3.2,0 4.5,0.8 5.1,3.6c0,1.9 -1.1,2.1 -1.1,6.2c0,4 3.6,5.1 5.5,5.1c3.2,0 5.1,-2.3 5.1,-5.7c0,-6.2 -4.9,-11.7 -14.4,-11.7c-12.9,0 -20.8,11.5 -20.8,24c-0.3,14 6.3,24.2 19.8,24.2l0,0zm38.3,0c7.8,0 14,-5.1 17.4,-12.3l-1.9,-1.1c-3.4,6.2 -6.1,9.1 -12.9,9.1c-9.5,0 -13.4,-9.3 -13.4,-22.3l0,-1.1l27.4,0l0,-0.9c0,-10.4 -4.7,-19.5 -17.6,-19.5c-12.5,0 -19.7,11.7 -19.7,23.8c0.1,13.1 6.7,24.3 20.7,24.3l0,0zm-10.7,-30.1c0.2,-9.4 4.2,-15.9 9.6,-15.9c6.4,0 7.9,8.3 7.9,15.5l-17.5,0.4l0,0zm30.2,28.9l23.6,0l0,-2.1c-3,-0.2 -9.6,-1.7 -9.6,-4.9c0,-1.3 0.4,-3.2 0.9,-5.1c0.8,-2.8 1.7,-5.9 3.4,-10.2l20.2,0l5.1,14.7c0.2,0.8 0.4,1.5 0.4,2.1c0,2.3 -5.5,3.4 -8.3,3.6l0,2.1l27,0l0,-2.1c-1.5,0 -4.3,-0.8 -5.7,-1.7c-2.1,-1.3 -2.6,-2.6 -3.4,-4.5c-3.2,-8.7 -11.2,-32.1 -19.9,-56.1l-4,0c-6.2,17.8 -13.2,37.4 -19.3,53.3c-1.3,3.2 -2.8,5.9 -4.9,7.2c-1.5,0.9 -4.3,1.7 -6.1,1.7l0,2.1l0.6,-0.1l0,0zm19.3,-25.5l9.1,-25.5l9.1,25.5l-18.2,0zm58.1,26.7c5.3,0 9.3,-3.6 11.2,-5.7l0.4,0l0,4l0.6,0.6l14.9,-0.9l0,-1.7c-1.5,0 -4.2,-0.4 -5.1,-1.1c-1.3,-0.9 -1.9,-2.6 -2.1,-4.5l0,-60.3l-0.6,-0.6l-17.2,0.9l0,1.7c2.3,0.2 5.9,0.9 7.4,2.1c1.3,0.9 2.1,3.4 2.3,5.3l0,18.3c-0.9,-0.4 -4.9,-2.5 -10,-2.5c-9.8,0 -18.7,8.9 -18.7,21.5c-0.5,14.2 7.2,22.9 16.9,22.9l0,0zm3.2,-4c-8.1,0 -11.2,-8.5 -11.2,-17.8c0,-12.7 4.3,-20.4 10.4,-20.4c5.5,0 8.1,4.5 9.1,7.7l0,26.4c-2.3,2.4 -4.5,4.1 -8.3,4.1l0,0zm40.4,3.4l3.2,0c1.1,-4.2 2.3,-7 3.4,-10c3.6,-9.8 6.4,-17.2 10,-25.5c1.1,-2.8 4.9,-4.9 6.4,-5.1l0,-1.7l-15.9,0l0,1.9c1.3,0.2 6.4,1.5 6.4,3.4c0,0.8 -0.2,1.9 -0.4,2.6c-3,8.9 -5.3,15.3 -8.3,23.2c-3.6,-9.4 -7.8,-20.4 -9.3,-24.9c-0.4,-1.1 -0.6,-1.9 -0.6,-1.9c0,-1.5 3,-1.9 4.9,-1.9l0,-2.1l-19.7,0l0,1.9c2.5,0.4 5.3,1.9 6.4,4.5c5.8,14.6 7.7,19.2 13.5,35.6l0,0zm31.8,0.6c4.9,0 9.5,-2.5 12.5,-6.4l0.2,0c1.3,4.3 3.8,6.2 7.8,6.2c5.3,0 8.7,-3.4 9.3,-11.9l-2.1,0c-0.2,3.6 -0.6,7.2 -3,7.2s-4,-3 -4,-4.7c0,-3 0.4,-12.7 0.4,-20.8c0,-12.3 -6.4,-13.8 -14.9,-13.8c-6.6,0 -14,4.3 -14,9.8c0,2.6 1.1,4.9 4,4.9c3,0 5.5,-1.7 5.5,-4.2c0,-2.1 -0.8,-4.2 -0.8,-5.5c0.8,-0.9 1.9,-3.2 4.7,-3.2c6.8,0 7,7.7 7,9.4l0,5.1c-3.6,2.3 -9.3,3.8 -14.2,5.9c-4.2,1.7 -8.1,4.3 -8.1,11.9c-0.1,6.1 3.8,10.1 9.7,10.1l0,0zm4.5,-4.4c-3.4,0 -5.5,-2.5 -5.5,-7c0,-8.3 5.5,-10.8 13.6,-13.8l-0.4,16.3c-2,2.8 -3.3,4.5 -7.7,4.5z"/>
    <path stroke="null" id="svg_8" d="m3295.838893,3735.515578l20.4,0l0,-1.9c-1.3,0 -2.8,-0.4 -4,-1.1c-1.3,-0.8 -2.1,-2.1 -2.1,-4.2l0,-25.3c0.8,-2.1 4.2,-6 10,-6c3.6,0 6.6,3.4 6.6,9.8l0,21.9c0,2.1 -0.6,3.6 -2.3,4.2c-0.9,0.4 -2.5,0.6 -4,0.6l0,1.9l20.6,0l0,-1.9c-1.5,0 -2.6,-0.4 -4,-0.9c-1.5,-0.8 -2.1,-2.1 -2.1,-4.2l0,-21.4c0,-8.9 -3.6,-14.7 -11.3,-14.7c-7.2,0 -10.2,4.2 -13.6,7.6l0,-6.3l-0.6,-0.6l-14.4,0.9l0,1.7c1.5,0 3.4,0.8 4.3,1.5c1.3,0.9 2.1,3 2.3,4.9l0,26.6c0,2.1 -0.8,3.6 -2.3,4.2c-1.1,0.4 -2.3,0.6 -3.8,0.6l0.3,2.1l0,0zm66.2,1.2c6.8,0 12.7,-4.9 15.9,-11l-1.9,-1.3c-2.6,5.3 -6.2,8.3 -11.9,8.3c-7.2,0 -11.3,-7.7 -11.3,-19.1c0,-14 4.9,-18.9 9.8,-18.9c2.8,0 4.2,0.6 4.7,3.4c0,1.7 -1.1,1.9 -1.1,5.7c0,3.6 3.4,4.7 4.9,4.7c3,0 4.7,-2.1 4.7,-5.1c0,-5.7 -4.5,-10.8 -13.2,-10.8c-11.7,0 -19.1,10.6 -19.1,21.9c0.1,12.7 6.2,22.2 18.5,22.2l0,0zm35.2,0c7.2,0 12.9,-4.7 15.9,-11.2l-1.7,-1.1c-3.2,5.7 -5.5,8.3 -11.7,8.3c-8.7,0 -12.3,-8.5 -12.3,-20.4l0,-0.9l25,0l0,-0.8c0,-9.4 -4.3,-17.8 -16.1,-17.8c-11.3,0 -18.2,10.6 -18.2,21.7c0.1,12 6.2,22.2 19.1,22.2l0,0zm-9.9,-27.6c0.2,-8.7 4,-14.6 8.9,-14.6c5.9,0 7.2,7.6 7.2,14.4l-16.1,0.2zm42.2,27.8c7.9,0 14.7,-4.9 14.7,-13.2c0,-7.6 -4.9,-11.2 -11.7,-13.8c-6.6,-2.5 -9.5,-3.8 -9.5,-8.7c0,-3.2 2.1,-6.6 6.6,-6.6c5.7,0 10,5.3 10.8,10.6l1.9,0l-0.6,-12.9l-2.6,0l-0.6,2.5c-2.1,-1.5 -5.5,-2.5 -8.9,-2.5c-7.8,0 -13.2,5.5 -13.2,12.3c0,7.9 6.4,11.3 11.7,13.2c6.1,2.1 9.6,4.2 9.6,8.7c0,4.5 -2.3,7.9 -7.8,7.9c-6.6,0 -11.7,-8.5 -12.7,-13l-1.9,0l0.4,14.4l2.8,0l0.8,-2.8c1.5,1.6 6.2,3.9 10.2,3.9l0,0z"/>
   </g>
  </g>
 </g>
</svg>